<svg xmlns="http://www.w3.org/2000/svg" viewBox="0 0 320 200"><defs><linearGradient id="bg" x1="0" y1="0" x2="1" y2="1"><stop offset="0" stop-color="#1b1446"/><stop offset="1" stop-color="#0b2a3a"/></linearGradient><linearGradient id="a" x1="0" y1="1" x2="1" y2="0"><stop offset="0" stop-color="#7c6cff"/><stop offset="1" stop-color="#22d3ee"/></linearGradient></defs><rect width="320" height="200" fill="url(#bg)"/><rect x="30" y="48" width="112" height="72" rx="10" fill="url(#a)"/><path d="M78 70v28l24-14z" fill="#fff"/><path d="M152 84h22l-7-7M174 84l-7 7" stroke="#fff" stroke-width="3" fill="none" stroke-linecap="round" stroke-linejoin="round" opacity=".8"/><rect x="186.0" y="62.4" width="4.9" height="43.1" rx="2.4" fill="url(#a)"/><rect x="194.8" y="66.8" width="4.9" height="34.5" rx="2.4" fill="url(#a)"/><rect x="203.7" y="81.8" width="4.9" height="4.4" rx="2.4" fill="url(#a)"/><rect x="212.5" y="69.5" width="4.9" height="28.9" rx="2.4" fill="url(#a)"/><rect x="221.3" y="61.5" width="4.9" height="45.1" rx="2.4" fill="url(#a)"/><rect x="230.2" y="66.1" width="4.9" height="35.8" rx="2.4" fill="url(#a)"/><rect x="239.0" y="78.5" width="4.9" height="11.0" rx="2.4" fill="url(#a)"/><rect x="247.8" y="79.4" width="4.9" height="9.3" rx="2.4" fill="url(#a)"/><rect x="256.7" y="79.0" width="4.9" height="10.1" rx="2.4" fill="url(#a)"/><rect x="265.5" y="80.5" width="4.9" height="7.0" rx="2.4" fill="url(#a)"/><rect x="274.3" y="71.2" width="4.9" height="25.6" rx="2.4" fill="url(#a)"/><rect x="283.2" y="70.4" width="4.9" height="27.2" rx="2.4" fill="url(#a)"/><g fill="#fff"><rect x="30" y="138" width="200" height="7" rx="3.5" opacity=".55"/><rect x="30" y="152" width="150" height="7" rx="3.5" opacity=".35"/><rect x="30" y="166" width="176" height="7" rx="3.5" opacity=".25"/></g></svg>