<svg xmlns="http://www.w3.org/2000/svg" viewBox="0 0 320 200"><!-- © 2026 Tomas Martinez · GPL-3.0-or-later · tm1363-c339e3ad --><defs><linearGradient id="g" x1="0" y1="0" x2="1" y2="1"><stop offset="0" stop-color="#7c5cff"/><stop offset="1" stop-color="#2bb5ff"/></linearGradient></defs><rect width="320" height="200" fill="#f4f1ea"/><rect x="28" y="36" width="96" height="96" rx="22" fill="url(#g)"/><path d="M56 62h40v12H82v38H70V74H56z" fill="#fff"/><rect x="140" y="68" width="64" height="64" rx="14" fill="url(#g)"/><path d="M159 85h26v8h-9v24h-8V93h-9z" fill="#fff"/><rect x="218" y="92" width="40" height="40" rx="9" fill="url(#g)"/><path d="M230 102h16v5h-5.5v15h-5v-15H230z" fill="#fff"/><rect x="272" y="108" width="24" height="24" rx="5" fill="url(#g)"/><rect x="28" y="152" width="264" height="26" rx="8" fill="#dfe1e5"/><rect x="36" y="156" width="110" height="22" rx="6" fill="#fff"/><rect x="44" y="161" width="12" height="12" rx="3" fill="url(#g)"/><rect x="62" y="164" width="66" height="6" rx="3" fill="#9aa0a6"/></svg>
