<svg xmlns="http://www.w3.org/2000/svg" viewBox="0 0 320 200"><!-- © 2026 Tomas Martinez · GPL-3.0-or-later · tm1363-c339e3ad --><rect width="320" height="200" fill="#fff"/><g fill="#d9d9d9"><circle cx="20" cy="20" r="1"/></g><g stroke="#1e1e1e" stroke-width="2" fill="none" stroke-linecap="round" stroke-linejoin="round"><path d="M30 62c30-2 62-1 90 1 1 18 0 34-1 46-30 1-60 1-88-1-2-14-2-30-1-46z" fill="#a5d8ff"/><path d="M170 44l42 40-42 40-42-40z" fill="#ffec99"/><ellipse cx="268" cy="86" rx="38" ry="24" fill="#b2f2bb"/><path d="M122 86c3-1 4-1 6-1M214 85c4 0 10 1 16 1"/><path d="M220 79l10 7-10 6M120 80l8 5-8 6"/></g><rect x="136" y="134" width="96" height="52" fill="#fff3a3"/><path d="M146 152h70M146 166h50" stroke="#2b2b2b" stroke-width="2" stroke-linecap="round"/><g font-family="'Comic Sans MS', cursive" font-size="13" fill="#1e1e1e" text-anchor="middle"><text x="75" y="90">Idea</text><text x="170" y="89">?</text><text x="268" y="90">Ship</text></g></svg>
