<!-- Zoom on Click thumbnail · © 2026 Tomas Martinez · GPL-3.0-or-later · tm1363-c339e3ad -->
<svg xmlns="http://www.w3.org/2000/svg" viewBox="0 0 320 200">
  <defs>
    <linearGradient id="bg" x1="0" y1="0" x2="1" y2="1"><stop offset="0" stop-color="#ff7eb3"/><stop offset=".5" stop-color="#7c6cff"/><stop offset="1" stop-color="#22d3ee"/></linearGradient>
    <filter id="sh" x="-20%" y="-20%" width="140%" height="140%"><feDropShadow dx="0" dy="6" stdDeviation="8" flood-opacity=".3"/></filter>
  </defs>
  <rect width="320" height="200" fill="url(#bg)"/>
  <g filter="url(#sh)"><rect x="34" y="26" width="252" height="148" rx="10" fill="#f6f7fb"/></g>
  <rect x="34" y="26" width="252" height="18" rx="9" fill="#fff"/>
  <rect x="52" y="62" width="96" height="10" rx="5" fill="#141821"/>
  <rect x="52" y="80" width="130" height="6" rx="3" fill="#b9bfcc"/>
  <rect x="52" y="98" width="120" height="16" rx="5" fill="#fff"/><rect x="52" y="120" width="120" height="16" rx="5" fill="#fff"/>
  <rect x="196" y="94" width="76" height="22" rx="6" fill="#7c6cff"/>
  <rect x="180" y="80" width="108" height="50" rx="8" fill="none" stroke="#fff" stroke-width="3" stroke-dasharray="8 5"/>
  <circle cx="234" cy="105" r="16" fill="none" stroke="#fff" stroke-width="3" opacity=".9"/>
  <path d="M236 106l14 6-6 2-2 6z" fill="#141821" stroke="#fff" stroke-width="1.5" stroke-linejoin="round"/>
</svg>
